<?xml version="1.0" encoding="UTF-8"?><svg id="Layer_2" xmlns="http://www.w3.org/2000/svg" viewBox="0 0 126.38 126.38"><defs><style>.cls-1{fill:#22c07c;}.cls-2{fill:#0f253a;}</style></defs><g id="Layer_1-2"><circle class="cls-2" cx="63.19" cy="63.19" r="63.19"/><path class="cls-1" d="M17.11,56.49c0-16,9.34-27.94,26.24-27.94,11.45,0,19.9,5.52,23.64,15.35l-7.96,5.69c-1.62-6.99-6.82-12.35-15.6-12.35-11.37,0-16.57,7.96-16.57,19.25s5.28,19.33,16,19.33c9.18,0,13.24-4.95,15.19-12.51h-15.68v-7.72h24.86v28.19h-5.85l-2.52-20.47c-.41,12.27-7.31,21.12-19.41,21.12-13.97,0-22.34-10.64-22.34-27.94Z"/><path class="cls-1" d="M64.61,97.84l-10.41-39.84h7.73l5.17,23.19,1.78,11.24,2.32-10.82,6.24-23.61h8.68l6.12,23.61,2.26,10.82,1.84-11.24,5.29-23.19h7.61l-10.53,39.84h-8.44l-6.24-23.61-2.32-11.12-2.32,11.12-6.36,23.61h-8.44Z"/></g></svg>