<?xml version="1.0" encoding="UTF-8"?><svg id="Layer_2" xmlns="http://www.w3.org/2000/svg" viewBox="0 0 52.78 39.69"><defs><style>.cls-1{fill:#f0f1f3;}</style></defs><g id="Layer_1-2"><path class="cls-1" d="M0,16C0,6.84,5.35,0,15.03,0c6.56,0,11.4,3.16,13.54,8.79l-4.56,3.26c-.93-4-3.91-7.07-8.93-7.07-6.51,0-9.49,4.56-9.49,11.03s3.02,11.07,9.17,11.07c5.26,0,7.58-2.84,8.7-7.16h-8.98v-4.42h14.24v16.14h-3.35l-1.44-11.72c-.23,7.03-4.19,12.1-11.12,12.1C4.79,32.01,0,25.91,0,16Z"/><path class="cls-1" d="M27.2,39.69l-5.96-22.82h4.43l2.96,13.28,1.02,6.44,1.33-6.2,3.58-13.52h4.97l3.51,13.52,1.29,6.2,1.06-6.44,3.03-13.28h4.36l-6.03,22.82h-4.84l-3.58-13.52-1.33-6.37-1.33,6.37-3.64,13.52h-4.84Z"/></g></svg>