<?xml version="1.0" encoding="UTF-8"?><svg id="Layer_2" xmlns="http://www.w3.org/2000/svg" viewBox="0 0 229.52 78.42"><defs><style>.cls-1{fill:#fff;}</style></defs><g id="Layer_1-2"><path class="cls-1" d="M1.59,16.06C1.59,6.86,6.95,0,16.66,0c6.58,0,11.44,3.17,13.58,8.82l-4.57,3.27c-.93-4.01-3.92-7.09-8.96-7.09-6.53,0-9.52,4.57-9.52,11.06s3.03,11.11,9.2,11.11c5.27,0,7.61-2.85,8.73-7.19h-9.01v-4.43h14.28v16.2h-3.36l-1.45-11.76c-.23,7.05-4.2,12.14-11.16,12.14-8.03,0-12.84-6.11-12.84-16.06Z"/><path class="cls-1" d="M34.87,20.4c0-7.14,4.43-11.86,10.83-11.86,6.81,0,10.6,4.53,10.6,10.83,0,.84-.09,1.82-.19,2.29h-16.24c.28,4.06,2.66,6.25,6.25,6.25,3.97,0,5.74-2.05,6.58-3.97l3.22,3.36c-1.73,2.61-4.81,4.9-9.85,4.9-6.77,0-11.2-4.71-11.2-11.81ZM39.91,18.3h11.67c-.37-3.59-2.43-5.55-5.88-5.55-3.22,0-5.37,1.87-5.79,5.55Z"/><path class="cls-1" d="M62.18,31.74V13.07h-3.5v-4.06h3.5v-1.73c0-4.76,2.57-7.28,6.49-7.28,3.59,0,5.83,2.05,6.49,5.37V.47h5.27v31.27h-5.27V8.92c0-3.83-2.15-4.99-4.39-4.99s-3.36,1.12-3.36,4.29v.79h3.97v4.06h-3.97v18.67h-5.23Z"/><path class="cls-1" d="M84.82,20.4c0-7.14,4.43-11.86,10.83-11.86,6.81,0,10.6,4.53,10.6,10.83,0,.84-.09,1.82-.19,2.29h-16.24c.28,4.06,2.66,6.25,6.25,6.25,3.97,0,5.74-2.05,6.58-3.97l3.22,3.36c-1.73,2.61-4.81,4.9-9.85,4.9-6.77,0-11.2-4.71-11.2-11.81ZM89.86,18.3h11.67c-.37-3.59-2.43-5.55-5.88-5.55-3.22,0-5.37,1.87-5.79,5.55Z"/><path class="cls-1" d="M8.17,69.74L0,38.47h6.07l4.06,18.2,1.4,8.82,1.82-8.5,4.9-18.53h6.81l4.81,18.53,1.77,8.5,1.45-8.82,4.15-18.2h5.97l-8.26,31.27h-6.63l-4.9-18.53-1.82-8.73-1.82,8.73-4.99,18.53h-6.63Z"/><path class="cls-1" d="M42.62,58.4c0-7.1,4.48-11.86,11.02-11.86s11.11,4.76,11.11,11.86-4.48,11.81-11.11,11.81-11.02-4.76-11.02-11.81ZM59.42,58.4c0-5.27-2.33-7.52-5.74-7.52s-5.69,2.24-5.69,7.52,2.33,7.47,5.69,7.47,5.74-2.24,5.74-7.47Z"/><path class="cls-1" d="M69.23,69.74v-22.73h5.23v6.44c.84-3.64,3.13-6.91,7.19-6.91,2.85,0,4.95,1.87,4.95,5.23,0,2.19-.61,3.83-1.03,4.53h-5.37c.75-.75,1.45-2.24,1.45-3.55s-.61-2.29-2.15-2.29c-2.61,0-5.04,2.99-5.04,6.77v12.51h-5.23Z"/><path class="cls-1" d="M89.95,69.74v-31.27h5.23v14.33l-.19,4.39,3.73-4.11,6.21-6.07h6.39l-9.2,8.96,9.2,13.77h-6.11l-6.63-10.64-3.41,3.36v7.28h-5.23Z"/><path class="cls-1" d="M111.66,64.65l3.08-3.27c1.26,2.29,4.06,4.62,8.12,4.62,2.24,0,3.69-.79,3.69-2.43s-1.73-2.24-4.25-2.85l-3.03-.75c-3.59-.84-6.91-2.43-6.91-6.58s3.41-6.81,8.64-6.81c4.85,0,8.26,2.33,9.66,4.9l-3.08,3.27c-1.59-2.52-4.01-4.01-6.96-4.01-2.01,0-3.36.84-3.36,2.38,0,1.63,1.21,2.24,4.29,3.03l2.75.7c5.09,1.31,6.96,3.36,6.96,6.63,0,4.48-3.78,6.72-8.59,6.72s-9.29-1.96-11.02-5.55Z"/><path class="cls-1" d="M135.42,78.42v-31.41h5.23v6.07c.75-3.55,2.75-6.58,7.28-6.58,5.51,0,9.06,4.53,9.06,11.86s-3.55,11.86-9.15,11.86c-4.53,0-6.44-3.03-7.19-6.53v14.75h-5.23ZM145.87,65.96c3.27,0,5.74-2.47,5.74-7.61s-2.47-7.61-5.74-7.61c-3.69,0-5.23,2.47-5.23,6.21v2.8c0,3.73,1.54,6.21,5.23,6.21Z"/><path class="cls-1" d="M160.16,64.84c0-3.22,2.24-5.18,5.93-6.63l7.61-3.22c-.19-2.29-1.21-3.83-4.34-3.83s-5.41,1.77-6.72,4.15l-3.13-3.73c1.77-2.43,5.32-5.04,10.36-5.04,5.65,0,8.82,3.22,8.82,8.82v8.54c0,1.03.37,1.35,1.21,1.35h1.45v4.48h-3.22c-2.43,0-4.34-1.12-4.34-4.39v-1.68c-.7,2.99-2.89,6.53-7.66,6.53-3.73,0-5.97-2.1-5.97-5.37ZM168,66.15c3.45,0,5.79-2.05,5.79-5.13v-2.43l-5.83,2.61c-1.96.89-2.75,1.68-2.75,2.85,0,1.31.89,2.1,2.8,2.1Z"/><path class="cls-1" d="M184.11,58.4c0-7.1,4.25-11.86,11.02-11.86,5.69,0,9.29,3.22,10.5,7.51l-4.71,2.33c-.51-3.27-2.19-5.46-5.69-5.46s-5.79,2.66-5.79,7.47,2.19,7.42,5.79,7.42,5.18-2.19,5.69-5.46l4.71,2.33c-1.21,4.29-4.81,7.52-10.5,7.52-6.77,0-11.02-4.76-11.02-11.81Z"/><path class="cls-1" d="M208.1,58.4c0-7.14,4.43-11.86,10.83-11.86,6.81,0,10.6,4.53,10.6,10.83,0,.84-.09,1.82-.19,2.29h-16.24c.28,4.06,2.66,6.25,6.25,6.25,3.97,0,5.74-2.05,6.58-3.97l3.22,3.36c-1.73,2.61-4.81,4.9-9.85,4.9-6.77,0-11.2-4.71-11.2-11.81ZM213.14,56.3h11.67c-.37-3.59-2.43-5.55-5.88-5.55-3.22,0-5.37,1.87-5.79,5.55Z"/></g></svg>